# xmcd CD database file
#
# Track frame offsets:
#	150
#	18977
#	35300
#	49682
#	69387
#	86022
#	101860
#	118290
#	137167
#	155880
#	175050
#	191395
#	202935
#	231835
#	247300
#	263307
#	280130
#
# Disc length: 4016 seconds
#
# Revision: 2
# Processed by: cddbd v1.5.2PL0 Copyright (c) Steve Scherf et al.
# Submitted via: jetAudio 7
#
DISCID=ee0fae11
DTITLE=Fleetwood Mac - Greatest Hits [CD)
DYEAR=1900
DGENRE=blues
TTITLE0=Rhiannon
TTITLE1=Go Your Own Way 
TTITLE2=Don't Stop 
TTITLE3=Gypsy 
TTITLE4=Everywhere
TTITLE5=You Make Loving Fun
TTITLE6=Big Love 
TTITLE7=All Long As You Follow
TTITLE8=Say You Love Me
TTITLE9=Dreams
TTITLE10=Little Lies
TTITLE11=Oh Diane
TTITLE12=Sara
TTITLE13=Tusk
TTITLE14=Seven Wonders
TTITLE15=Hold Me
TTITLE16=No Questions Asked
EXTD=
EXTT0=
EXTT1=
EXTT2=
EXTT3=
EXTT4=
EXTT5=
EXTT6=
EXTT7=
EXTT8=
EXTT9=
EXTT10=
EXTT11=
EXTT12=
EXTT13=
EXTT14=
EXTT15=
EXTT16=
PLAYORDER=
